HIERARCHY
ROOT hip
{
	OFFSET 0.000000 0.000000 0.000000 
	CHANNELS 6 Xposition Yposition Zposition Xrotation Zrotation Yrotation
	JOINT abdomen
	{
		OFFSET 0.000000 3.402643 0.000000 
		CHANNELS 3 Xrotation Zrotation Yrotation
		JOINT chest
		{
			OFFSET 0.000000 8.438565 -0.680529 
			CHANNELS 3 Xrotation Zrotation Yrotation
			JOINT neck
			{
				OFFSET 0.000000 10.207942 -0.272212 
				CHANNELS 3 Xrotation Zrotation Yrotation
				JOINT head
				{
					OFFSET 0.000000 3.130431 0.000000 
					CHANNELS 3 Xrotation Zrotation Yrotation
					End Site
					{
						OFFSET 0.000000 3.130435 0.000000 
					}
				}
			}
			JOINT lCollar
			{
				OFFSET 3.470700 6.669187 -0.816635 
				CHANNELS 3 Yrotation Zrotation Xrotation
				JOINT lShldr
				{
					OFFSET 3.198488 0.000000 0.000000 
					CHANNELS 3 Zrotation Yrotation Xrotation
					JOINT lForeArm
					{
						OFFSET 10.139888 0.000000 0.000000 
						CHANNELS 3 Yrotation Zrotation Xrotation
						JOINT lHand
						{
							OFFSET 8.370511 0.000000 0.000000 
							CHANNELS 3 Zrotation Yrotation Xrotation
							End Site
							{
								OFFSET 4.083176 0.000000 0.000000 
							}
						}
					}
				}
			}
			JOINT rCollar
			{
				OFFSET -3.470700 6.669187 -0.816635 
				CHANNELS 3 Yrotation Zrotation Xrotation
				JOINT rShldr
				{
					OFFSET -3.198488 0.000000 0.000000 
					CHANNELS 3 Zrotation Yrotation Xrotation
					JOINT rForeArm
					{
						OFFSET -10.139888 0.000000 0.000000 
						CHANNELS 3 Yrotation Zrotation Xrotation
						JOINT rHand
						{
							OFFSET -8.370511 0.000000 0.000000 
							CHANNELS 3 Zrotation Yrotation Xrotation
							End Site
							{
								OFFSET -4.083176 0.000000 0.000000 
							}
						}
					}
				}
			}
		}
	}
	JOINT lThigh
	{
		OFFSET 5.308129 -1.633274 1.361059 
		CHANNELS 3 Xrotation Zrotation Yrotation
		JOINT lShin
		{
			OFFSET -2.041588 -20.007561 0.000000 
			CHANNELS 3 Xrotation Zrotation Yrotation
			JOINT lFoot
			{
				OFFSET 0.000000 -19.190928 -1.224953 
				CHANNELS 3 Xrotation Yrotation Zrotation
				End Site
				{
					OFFSET 0.000000 -2.449906 4.627600 
				}
			}
		}
	}
	JOINT rThigh
	{
		OFFSET -5.308129 -1.633274 1.361059 
		CHANNELS 3 Xrotation Zrotation Yrotation
		JOINT rShin
		{
			OFFSET 2.041588 -20.007561 0.000000 
			CHANNELS 3 Xrotation Zrotation Yrotation
			JOINT rFoot
			{
				OFFSET 0.000000 -19.190928 -1.224953 
				CHANNELS 3 Xrotation Yrotation Zrotation
				End Site
				{
					OFFSET 0.000000 -2.449906 4.627600 
				}
			}
		}
	}
}
MOTION
Frames: 8
Frame Time: 0.016667
-0.531957 44.996708 0.287977 5.527650 -0.602653 0.420095 -21.101400 1.506760 -0.570698 20.252800 4.882740 -0.006237 32.508923 -3.658052 -4.307028 20.591000 5.874410 -0.143734 2.000000 -2.000000 0.000000 -90.026398 -2.245330 167.953995 26.103800 -0.337619 0.060215 0.044684 0.004046 -135.475998 -2.000000 2.000000 0.000000 86.169098 -3.740980 167.940002 -33.398800 0.328988 0.075260 -0.057224 -0.020220 -126.150002 -9.426493 -4.204175 -1.403923 18.971340 2.475614 1.610850 -12.518243 1.018996 0.290914 -13.709698 2.522223 4.077368 27.922722 -2.591820 -2.183609 -20.461174 -5.764378 -2.714817 
-0.505866 44.998638 0.295997 5.566790 -0.670651 0.608354 -21.199200 1.519370 -0.620423 20.047001 4.853320 -0.033199 32.593540 -3.477593 -4.160740 20.624701 6.004470 -0.092125 2.000000 -2.000000 0.000000 -89.860298 -1.972080 167.875000 26.006100 -0.337722 0.060006 0.044675 0.003691 -135.602997 -2.000000 2.000000 0.000000 86.257103 -3.770390 167.988998 -33.535500 0.328808 0.075533 -0.057250 -0.020354 -126.100998 -9.505614 -4.196768 -1.638901 19.051924 2.467120 1.627647 -12.497417 0.909759 0.245919 -13.690001 2.554256 4.028755 27.853230 -2.597582 -2.176343 -20.473747 -5.785919 -2.739519 
-0.482904 45.003525 0.314761 5.625350 -0.641428 0.639842 -21.277700 1.550470 -0.593014 19.909700 4.902030 -0.016017 32.667419 -3.438746 -4.203353 20.654499 6.012850 -0.104790 2.000000 -2.000000 0.000000 -89.752800 -1.669640 167.748001 25.976900 -0.337752 0.059943 0.044685 0.004101 -135.457001 -2.000000 2.000000 0.000000 86.198700 -3.888700 168.466995 -33.740601 0.328537 0.075940 -0.056979 -0.018903 -126.628998 -9.527535 -4.276520 -1.742024 19.042595 2.466207 1.637400 -12.493480 1.091920 0.284349 -13.702145 2.491910 4.021207 27.813162 -2.602950 -2.168618 -20.490313 -5.798357 -2.748406 
-0.458501 45.017139 0.340400 5.732720 -0.583007 0.546845 -21.209999 1.623080 -0.482883 20.086100 4.999830 0.056803 32.521656 -3.529835 -4.365456 20.581499 5.884090 -0.181027 2.000000 -2.000000 0.000000 -89.791603 -1.680470 167.289001 25.742500 -0.337996 0.059440 0.044715 0.005140 -135.085999 -2.000000 2.000000 0.000000 86.120697 -3.859930 168.692001 -34.092201 0.328069 0.076636 -0.056868 -0.018283 -126.852997 -9.507193 -4.363637 -1.722849 18.796312 2.455375 1.601082 -12.401998 1.126736 0.300933 -13.760544 2.404490 4.040297 27.725525 -2.596131 -2.168396 -20.377743 -5.721462 -2.727908 
-0.447700 45.022282 0.352937 5.791310 -0.573231 0.498408 -21.249500 1.657880 -0.529071 20.095800 5.097490 0.037343 32.558102 -3.360222 -4.140807 20.518000 6.045500 -0.101076 2.000000 -2.000000 0.000000 -89.820602 -1.408420 166.692993 25.498301 -0.338248 0.058914 0.044749 0.006124 -134.733994 -2.000000 2.000000 0.000000 86.052399 -3.830950 168.828995 -33.994499 0.328199 0.076443 -0.056935 -0.018660 -126.717003 -9.390382 -4.365649 -1.813617 18.504713 2.426016 1.601824 -12.279244 1.278874 0.355087 -13.749078 2.374232 4.082448 27.570154 -2.578834 -2.167111 -20.292505 -5.804011 -2.760382 
-0.435060 45.040012 0.357182 5.898800 -0.631405 0.520599 -21.200800 1.674380 -0.512930 20.174299 5.078010 0.054180 32.462700 -3.111172 -4.264275 20.500000 6.092970 -0.177249 2.000000 -2.000000 0.000000 -89.791100 -1.360180 166.438995 25.264000 -0.338488 0.058409 0.044756 0.006288 -134.675995 -2.000000 2.000000 0.000000 86.150002 -3.693910 168.692001 -34.092201 0.328069 0.076636 -0.057123 -0.019683 -126.346001 -9.550159 -4.349955 -1.806261 18.658722 2.447388 1.582814 -12.432363 1.322255 0.357453 -13.789308 2.393561 3.989572 27.391964 -2.589880 -2.152727 -20.151415 -5.769863 -2.719886 
-0.419534 45.042843 0.361378 6.035620 -0.708939 0.530397 -21.113100 1.694750 -0.486511 20.370399 5.019510 0.071656 32.321007 -3.191547 -4.466184 20.495600 5.961870 -0.246132 2.000000 -2.000000 0.000000 -89.752098 -1.496970 166.410004 25.000299 -0.338755 0.057840 0.044753 0.006206 -134.705002 -2.000000 2.000000 0.000000 86.218201 -3.390990 168.615005 -34.219101 0.327898 0.076887 -0.057158 -0.019871 -126.277000 -9.684989 -4.270998 -1.812503 18.581062 2.441877 1.593126 -12.248577 1.297161 0.342221 -13.839094 2.453650 4.010388 27.225454 -2.583559 -2.144350 -20.126757 -5.877096 -2.793098 
-0.404213 45.048496 0.365759 6.094330 -0.786546 0.531132 -21.123400 1.735580 -0.544761 20.380199 5.048800 0.062655 32.292522 -3.209248 -4.520370 20.474701 5.925050 -0.268929 2.000000 -2.000000 0.000000 -89.888496 -1.390570 165.970001 24.707300 -0.339049 0.057205 0.044804 0.007408 -134.274994 -2.000000 2.000000 0.000000 86.091400 -3.371830 168.770996 -34.267899 0.327833 0.076983 -0.057078 -0.019441 -126.433998 -9.732607 -4.177371 -1.692577 18.592003 2.436310 1.601839 -12.190364 1.184077 0.327698 -13.828523 2.528547 4.074824 27.109180 -2.567706 -2.142776 -20.119877 -5.930793 -2.825469 
